# xmcd
#
# Track frame offsets:
#	150
#	13435
#	27698
#	42948
#	55283
#	66446
#	81274
#	93924
#	109662
#	126235
#	144158
#	159074
#	173280
#
# Disc length: 2543 seconds
# Revision: 1
# Processed by: cddbd v1.5.2PL0 Copyright (c) Steve Scherf et al.
# Submitted via: dBpowerAMP V12.0
#
DISCID=a709ed0d
DTITLE=Joey+Rory,Nashville,TN~duoRoryLeeFeek&JoeyMartin - Hymns and Stories That Are Important to Us
DYEAR=2016
DGENRE=Country
TTITLE0=Take My Hand, Precious Lord
TTITLE1=I Surrender All
TTITLE2=He Touched Me
TTITLE3=Softly and Tenderly
TTITLE4=Jesus Loves Me
TTITLE5=It Is Well with My Soul
TTITLE6=The Old Rugged Cross
TTITLE7=I Need Thee Every Hour
TTITLE8=How Great Thou Art
TTITLE9=I'll Fly Away
TTITLE10=Jesus Paid It All
TTITLE11=Suppertime
TTITLE12=When I'm Gone
EXTD=
EXTT0=
EXTT1=
EXTT2=
EXTT3=
EXTT4=
EXTT5=
EXTT6=
EXTT7=
EXTT8=
EXTT9=
EXTT10=
EXTT11=
EXTT12=
PLAYORDER=
